<?xml version="1.0" encoding="us-ascii" standalone="no"?><svg xmlns="http://www.w3.org/2000/svg" xmlns:xlink="http://www.w3.org/1999/xlink" contentStyleType="text/css" height="63px" preserveAspectRatio="none" style="width:246px;height:63px;background:#FFFFFF;" version="1.1" viewBox="0 0 246 63" width="246px" zoomAndPan="magnify"><defs/><g><ellipse cx="16" cy="32" fill="#181818" rx="10" ry="10" style="stroke:none;stroke-width:1.0;"/><g id="Off"><rect fill="#F1F1F1" height="50" rx="12.5" ry="12.5" style="stroke:#181818;stroke-width:0.5;" width="50" x="61" y="7"/><line style="stroke:#181818;stroke-width:0.5;" x1="61" x2="111" y1="33.2969" y2="33.2969"/><text fill="#000000" font-family="sans-serif" font-size="14" lengthAdjust="spacing" textLength="19" x="76.5" y="24.9951">Off</text></g><g id="On"><rect fill="#F1F1F1" height="50" rx="12.5" ry="12.5" style="stroke:#181818;stroke-width:0.5;" width="50" x="189" y="7"/><line style="stroke:#181818;stroke-width:0.5;" x1="189" x2="239" y1="33.2969" y2="33.2969"/><text fill="#000000" font-family="sans-serif" font-size="14" lengthAdjust="spacing" textLength="20" x="204" y="24.9951">On</text></g><!--link *start* to Off--><g id="link_*start*_Off"><path d="M26.12,32 C35.94,32 45.77,32 55.6,32 " fill="none" id="*start*-to-Off" style="stroke:#181818;stroke-width:1.0;"/><polygon fill="#181818" points="60.74,32,51.74,28,55.74,32,51.74,36,60.74,32" style="stroke:#181818;stroke-width:1.0;"/></g><!--link Off to On--><g id="link_Off_On"><path d="M111.29,32 C132.06,32 161.55,32 183.61,32 " fill="none" id="Off-to-On" style="stroke:#181818;stroke-width:1.0;"/><polygon fill="#181818" points="188.76,32,179.76,28,183.76,32,179.76,36,188.76,32" style="stroke:#181818;stroke-width:1.0;"/><text fill="#000000" font-family="sans-serif" font-size="13" lengthAdjust="spacing" textLength="41" x="129.5" y="25.0669">Switch</text></g><!--link On to Off--><g id="link_On_Off"><path d="M188.57,46.16 C183.1,48.58 177.23,50.72 171.5,52 C152.85,56.17 147.15,56.17 128.5,52 C124.38,51.08 120.19,49.71 116.13,48.12 " fill="none" id="On-to-Off" style="stroke:#181818;stroke-width:1.0;"/><polygon fill="#181818" points="111.43,46.16,118.2102,53.3034,116.0483,48.076,121.2758,45.9141,111.43,46.16" style="stroke:#181818;stroke-width:1.0;"/><text fill="#000000" font-family="sans-serif" font-size="13" lengthAdjust="spacing" textLength="41" x="129.5" y="48.0669">Switch</text></g><!--SRC=[YzQALT2rK_1FI-C2OZ0pJy5A8RWyioGvWml8XaZ2XG00]--></g></svg>