<?xml version="1.0" encoding="UTF-8" standalone="no"?><svg xmlns="http://www.w3.org/2000/svg" xmlns:xlink="http://www.w3.org/1999/xlink" contentScriptType="application/ecmascript" contentStyleType="text/css" height="69px" preserveAspectRatio="none" style="width:251px;height:69px;" version="1.1" viewBox="0 0 251 69" width="251px" zoomAndPan="magnify"><defs><filter height="300%" id="f1qtc62z7cgwaa" width="300%" x="-1" y="-1"><feGaussianBlur result="blurOut" stdDeviation="2.0"/><feColorMatrix in="blurOut" result="blurOut2" type="matrix" values="0 0 0 0 0 0 0 0 0 0 0 0 0 0 0 0 0 0 .4 0"/><feOffset dx="4.0" dy="4.0" in="blurOut2" result="blurOut3"/><feBlend in="SourceGraphic" in2="blurOut3" mode="normal"/></filter></defs><g><ellipse cx="16" cy="33" fill="#000000" filter="url(#f1qtc62z7cgwaa)" rx="10" ry="10" style="stroke: none; stroke-width: 1.0;"/><rect fill="#FEFECE" filter="url(#f1qtc62z7cgwaa)" height="50" rx="12.5" ry="12.5" style="stroke: #A80036; stroke-width: 1.5;" width="50" x="61" y="8"/><line style="stroke: #A80036; stroke-width: 1.5;" x1="61" x2="111" y1="34.2969" y2="34.2969"/><text fill="#000000" font-family="sans-serif" font-size="14" lengthAdjust="spacingAndGlyphs" textLength="19" x="76.5" y="25.9951">Off</text><rect fill="#FEFECE" filter="url(#f1qtc62z7cgwaa)" height="50" rx="12.5" ry="12.5" style="stroke: #A80036; stroke-width: 1.5;" width="50" x="189" y="8"/><line style="stroke: #A80036; stroke-width: 1.5;" x1="189" x2="239" y1="34.2969" y2="34.2969"/><text fill="#000000" font-family="sans-serif" font-size="14" lengthAdjust="spacingAndGlyphs" textLength="20" x="204" y="25.9951">On</text><!--MD5=[79cb27a3a0f2a433e2384f6da7fb5477]
link *start to Off--><path d="M26.12,33 C35.94,33 45.77,33 55.6,33 " fill="none" id="*start-&gt;Off" style="stroke: #A80036; stroke-width: 1.0;"/><polygon fill="#A80036" points="60.74,33,51.74,29,55.74,33,51.74,37,60.74,33" style="stroke: #A80036; stroke-width: 1.0;"/><!--MD5=[88d9d84fc04544578402cf3b742eaaec]
link Off to On--><path d="M111.29,33 C132.06,33 161.55,33 183.61,33 " fill="none" id="Off-&gt;On" style="stroke: #A80036; stroke-width: 1.0;"/><polygon fill="#A80036" points="188.76,33,179.76,29,183.76,33,179.76,37,188.76,33" style="stroke: #A80036; stroke-width: 1.0;"/><text fill="#000000" font-family="sans-serif" font-size="13" lengthAdjust="spacingAndGlyphs" textLength="41" x="129.5" y="26.0669">Switch</text><!--MD5=[2ee57ebca22bdc8713f173619aa2ce0d]
link On to Off--><path d="M188.57,47.16 C183.1,49.58 177.23,51.72 171.5,53 C152.85,57.17 147.15,57.17 128.5,53 C124.38,52.08 120.19,50.71 116.13,49.12 " fill="none" id="On-&gt;Off" style="stroke: #A80036; stroke-width: 1.0;"/><polygon fill="#A80036" points="111.43,47.16,118.2102,54.3034,116.0483,49.076,121.2758,46.9141,111.43,47.16" style="stroke: #A80036; stroke-width: 1.0;"/><text fill="#000000" font-family="sans-serif" font-size="13" lengthAdjust="spacingAndGlyphs" textLength="41" x="129.5" y="49.0669">Switch</text><!--MD5=[6e4953db938e1ec836081a46057728ea]
@startuml lightbulb
[*] -> Off
Off -> On : Switch
On -> Off : Switch
@enduml

PlantUML version 1.2020.02(Sun Mar 01 10:22:07 UTC 2020)
(GPL source distribution)
Java Runtime: OpenJDK Runtime Environment
JVM: OpenJDK 64-Bit Server VM
Java Version: 17.0.14+7
Operating System: Linux
Default Encoding: UTF-8
Language: en
Country: null
--></g></svg>