<svg xmlns="http://www.w3.org/2000/svg" xmlns:xlink="http://www.w3.org/1999/xlink" contentStyleType="text/css" data-diagram-type="STATE" height="63px" preserveAspectRatio="none" style="width:246px;height:63px;background:#FFFFFF;" version="1.1" viewBox="0 0 246 63" width="246px" zoomAndPan="magnify"><defs/><g><ellipse cx="16" cy="32" fill="#222222" rx="10" ry="10" style="stroke:#222222;stroke-width:1;"/><g id="Off"><rect fill="#F1F1F1" height="50" rx="12.5" ry="12.5" style="stroke:#181818;stroke-width:0.5;" width="50" x="61" y="7"/><line style="stroke:#181818;stroke-width:0.5;" x1="61" x2="111" y1="33.2969" y2="33.2969"/><text fill="#000000" font-family="sans-serif" font-size="14" lengthAdjust="spacing" textLength="20.877" x="75.5615" y="24.9951">Off</text></g><g id="On"><rect fill="#F1F1F1" height="50" rx="12.5" ry="12.5" style="stroke:#181818;stroke-width:0.5;" width="50" x="189" y="7"/><line style="stroke:#181818;stroke-width:0.5;" x1="189" x2="239" y1="33.2969" y2="33.2969"/><text fill="#000000" font-family="sans-serif" font-size="14" lengthAdjust="spacing" textLength="19.8926" x="204.0537" y="24.9951">On</text></g><!--link *start* to Off--><g id="link_*start*_Off"><path d="M26.39,32 C37.88,32 43.37,32 54.85,32 " fill="transparent" id="*start*-to-Off" style="stroke:#181818;stroke-width:1;"/><polygon fill="#181818" points="60.85,32,51.85,28,55.85,32,51.85,36,60.85,32" style="stroke:#181818;stroke-width:1;"/></g><!--link Off to On--><g id="link_Off_On"><path d="M111.29,32 C133.73,32 160.34,32 182.76,32 " fill="transparent" id="Off-to-On" style="stroke:#181818;stroke-width:1;"/><polygon fill="#181818" points="188.76,32,179.76,28,183.76,32,179.76,36,188.76,32" style="stroke:#181818;stroke-width:1;"/><text fill="#000000" font-family="sans-serif" font-size="13" lengthAdjust="spacing" textLength="42.98" x="129" y="25.0669">Switch</text></g><!--link On to Off--><g id="link_On_Off"><path d="M188.89,46.16 C183.48,48.58 177.67,50.72 172,52 C152.93,56.31 147.07,56.31 128,52 C122.33,50.72 121.997,51.03 116.587,48.61 " fill="transparent" id="On-to-Off" style="stroke:#181818;stroke-width:1;"/><polygon fill="#181818" points="111.11,46.16,117.6922,53.4863,115.6742,48.2016,120.9588,46.1836,111.11,46.16" style="stroke:#181818;stroke-width:1;"/><text fill="#000000" font-family="sans-serif" font-size="13" lengthAdjust="spacing" textLength="42.98" x="129" y="48.0669">Switch</text></g><!--SRC=[YzQALT2rK_1FI-C2OZ0pJy5A8RWyioGvWml8XaZ2XG00]--></g></svg>