<svg xmlns="http://www.w3.org/2000/svg" xmlns:xlink="http://www.w3.org/1999/xlink" contentStyleType="text/css" data-diagram-type="STATE" height="143px" preserveAspectRatio="none" style="width:248px;height:143px;background:#FFFFFF;" version="1.1" viewBox="0 0 248 143" width="248px" zoomAndPan="magnify"><defs/><g><ellipse cx="32" cy="16" fill="#222222" rx="10" ry="10" style="stroke:#222222;stroke-width:1;"/><g id="Off"><rect fill="#F1F1F1" height="50" rx="12.5" ry="12.5" style="stroke:#181818;stroke-width:0.5;" width="50" x="7" y="87"/><line style="stroke:#181818;stroke-width:0.5;" x1="7" x2="57" y1="113.2969" y2="113.2969"/><text fill="#000000" font-family="sans-serif" font-size="14" lengthAdjust="spacing" textLength="20.877" x="21.5615" y="104.9951">Off</text></g><g id="On"><rect fill="#F1F1F1" height="50" rx="12.5" ry="12.5" style="stroke:#181818;stroke-width:0.5;" width="50" x="191" y="87"/><line style="stroke:#181818;stroke-width:0.5;" x1="191" x2="241" y1="113.2969" y2="113.2969"/><text fill="#000000" font-family="sans-serif" font-size="14" lengthAdjust="spacing" textLength="19.8926" x="206.0537" y="104.9951">On</text></g><!--link *start* to Off--><g id="link_*start*_Off"><path d="M32,26.36 C32,40.29 32,60.95 32,80.65 " fill="#FFFFFF" fill-opacity="0.00000" id="*start*-to-Off" style="stroke:#181818;stroke-width:1;"/><polygon fill="#181818" points="32,86.65,36,77.65,32,81.65,28,77.65,32,86.65" style="stroke:#181818;stroke-width:1;"/></g><!--link Off to On--><g id="link_Off_On"><path d="M57.2,112 C92.24,112 149.32,112 184.52,112 " fill="#FFFFFF" fill-opacity="0.00000" id="Off-to-On" style="stroke:#181818;stroke-width:1;"/><polygon fill="#181818" points="190.52,112,181.52,108,185.52,112,181.52,116,190.52,112" style="stroke:#181818;stroke-width:1;"/><text fill="#000000" font-family="sans-serif" font-size="13" lengthAdjust="spacing" textLength="98.5029" x="75" y="105.0669">Switch pressed</text></g><!--link On to Off--><g id="link_On_Off"><path d="M190.89,126.16 C185.48,128.58 179.67,130.72 174,132 C152.32,136.9 95.68,136.9 74,132 C68.33,130.72 67.997,131.03 62.587,128.61 " fill="#FFFFFF" fill-opacity="0.00000" id="On-to-Off" style="stroke:#181818;stroke-width:1;"/><polygon fill="#181818" points="57.11,126.16,63.6922,133.4863,61.6742,128.2016,66.9588,126.1836,57.11,126.16" style="stroke:#181818;stroke-width:1;"/><text fill="#000000" font-family="sans-serif" font-size="13" lengthAdjust="spacing" textLength="98.5029" x="75" y="128.0669">Switch pressed</text></g><!--SRC=[YzQALT3LjLFmJqlZ0c8543DFmKeXk3op93b3eQ0ejRWuDOKBA0PHX2450000]--></g></svg>
