<?xml version="1.0" encoding="UTF-8" standalone="no"?><svg xmlns="http://www.w3.org/2000/svg" xmlns:xlink="http://www.w3.org/1999/xlink" contentScriptType="application/ecmascript" contentStyleType="text/css" height="69px" preserveAspectRatio="none" style="width:423px;height:69px;" version="1.1" viewBox="0 0 423 69" width="423px" zoomAndPan="magnify"><defs><filter height="300%" id="f1exvegnjoeh5x" width="300%" x="-1" y="-1"><feGaussianBlur result="blurOut" stdDeviation="2.0"/><feColorMatrix in="blurOut" result="blurOut2" type="matrix" values="0 0 0 0 0 0 0 0 0 0 0 0 0 0 0 0 0 0 .4 0"/><feOffset dx="4.0" dy="4.0" in="blurOut2" result="blurOut3"/><feBlend in="SourceGraphic" in2="blurOut3" mode="normal"/></filter></defs><g><ellipse cx="16" cy="33" fill="#000000" filter="url(#f1exvegnjoeh5x)" rx="10" ry="10" style="stroke: none; stroke-width: 1.0;"/><rect fill="#FEFECE" filter="url(#f1exvegnjoeh5x)" height="50.2656" rx="12.5" ry="12.5" style="stroke: #A80036; stroke-width: 1.5;" width="136" x="61" y="8"/><line style="stroke: #A80036; stroke-width: 1.5;" x1="61" x2="197" y1="34.2969" y2="34.2969"/><text fill="#000000" font-family="sans-serif" font-size="14" lengthAdjust="spacingAndGlyphs" textLength="19" x="119.5" y="25.9951">Off</text><text fill="#000000" font-family="sans-serif" font-size="12" lengthAdjust="spacingAndGlyphs" textLength="116" x="66" y="50.4355">enter / enter_off();</text><rect fill="#FEFECE" filter="url(#f1exvegnjoeh5x)" height="50.2656" rx="12.5" ry="12.5" style="stroke: #A80036; stroke-width: 1.5;" width="136" x="275" y="8"/><line style="stroke: #A80036; stroke-width: 1.5;" x1="275" x2="411" y1="34.2969" y2="34.2969"/><text fill="#000000" font-family="sans-serif" font-size="14" lengthAdjust="spacingAndGlyphs" textLength="20" x="333" y="25.9951">On</text><text fill="#000000" font-family="sans-serif" font-size="12" lengthAdjust="spacingAndGlyphs" textLength="116" x="280" y="50.4355">enter / enter_on();</text><!--MD5=[79cb27a3a0f2a433e2384f6da7fb5477]
link *start to Off--><path d="M26.15,33 C35.96,33 45.77,33 55.57,33 " fill="none" id="*start-&gt;Off" style="stroke: #A80036; stroke-width: 1.0;"/><polygon fill="#A80036" points="60.7,33,51.7,29,55.7,33,51.7,37,60.7,33" style="stroke: #A80036; stroke-width: 1.0;"/><!--MD5=[88d9d84fc04544578402cf3b742eaaec]
link Off to On--><path d="M197,33 C220.1,33 246.01,33 269.51,33 " fill="none" id="Off-&gt;On" style="stroke: #A80036; stroke-width: 1.0;"/><polygon fill="#A80036" points="274.8,33,265.8,29,269.8,33,265.8,37,274.8,33" style="stroke: #A80036; stroke-width: 1.0;"/><text fill="#000000" font-family="sans-serif" font-size="13" lengthAdjust="spacingAndGlyphs" textLength="41" x="215.5" y="26.0669">Switch</text><!--MD5=[2ee57ebca22bdc8713f173619aa2ce0d]
link On to Off--><path d="M274.64,50.45 C268.87,51.48 263.1,52.35 257.5,53 C238.51,55.19 233.49,55.19 214.5,53 C210.56,52.55 206.54,51.98 202.49,51.32 " fill="none" id="On-&gt;Off" style="stroke: #A80036; stroke-width: 1.0;"/><polygon fill="#A80036" points="197.36,50.45,205.5569,55.9099,202.2885,51.2928,206.9055,48.0243,197.36,50.45" style="stroke: #A80036; stroke-width: 1.0;"/><text fill="#000000" font-family="sans-serif" font-size="13" lengthAdjust="spacingAndGlyphs" textLength="41" x="215.5" y="49.0669">Switch</text><!--MD5=[99f07b8f896adfdff8ad441ee44b2732]
@startuml lightbulb
[*] -> Off
Off -> On : Switch
On -> Off : Switch

Off: enter / enter_off();
On: enter / enter_on();
@enduml

PlantUML version 1.2020.02(Sun Mar 01 10:22:07 UTC 2020)
(GPL source distribution)
Java Runtime: OpenJDK Runtime Environment
JVM: OpenJDK 64-Bit Server VM
Java Version: 17.0.14+7
Operating System: Linux
Default Encoding: UTF-8
Language: en
Country: null
--></g></svg>