<svg xmlns="http://www.w3.org/2000/svg" xmlns:xlink="http://www.w3.org/1999/xlink" contentStyleType="text/css" data-diagram-type="STATE" height="63px" preserveAspectRatio="none" style="width:247px;height:63px;background:#FFFFFF;" version="1.1" viewBox="0 0 247 63" width="247px" zoomAndPan="magnify"><defs/><g><ellipse cx="16" cy="32" fill="#222222" rx="10" ry="10" style="stroke:#222222;stroke-width:1;"/><g id="Off"><rect fill="#F1F1F1" height="50" rx="12.5" ry="12.5" style="stroke:#181818;stroke-width:0.5;" width="50" x="61" y="7"/><line style="stroke:#181818;stroke-width:0.5;" x1="61" x2="111" y1="33.2969" y2="33.2969"/><text fill="#000000" font-family="sans-serif" font-size="14" lengthAdjust="spacing" textLength="20.877" x="75.5615" y="24.9951">Off</text></g><g id="On"><rect fill="#F1F1F1" height="50" rx="12.5" ry="12.5" style="stroke:#181818;stroke-width:0.5;" width="50" x="190" y="7"/><line style="stroke:#181818;stroke-width:0.5;" x1="190" x2="240" y1="33.2969" y2="33.2969"/><text fill="#000000" font-family="sans-serif" font-size="14" lengthAdjust="spacing" textLength="19.8926" x="205.0537" y="24.9951">On</text></g><!--link *start* to Off--><g id="link_*start*_Off"><path d="M26.12,32 C37.66,32 43.2,32 54.74,32 " fill="transparent" id="*start*-to-Off" style="stroke:#181818;stroke-width:1;"/><polygon fill="#181818" points="60.74,32,51.74,28,55.74,32,51.74,36,60.74,32" style="stroke:#181818;stroke-width:1;"/></g><!--link Off to On--><g id="link_Off_On"><path d="M111.18,32 C133.91,32 161.17,32 183.88,32 " fill="transparent" id="Off-to-On" style="stroke:#181818;stroke-width:1;"/><polygon fill="#181818" points="189.88,32,180.88,28,184.88,32,180.88,36,189.88,32" style="stroke:#181818;stroke-width:1;"/><text fill="#000000" font-family="sans-serif" font-size="13" lengthAdjust="spacing" textLength="42.98" x="129.5" y="25.0669">Switch</text></g><!--link On to Off--><g id="link_On_Off"><path d="M189.57,46.16 C184.1,48.58 178.23,50.72 172.5,52 C153.42,56.27 147.58,56.27 128.5,52 C122.77,50.72 122.387,51.0075 116.917,48.5875 " fill="transparent" id="On-to-Off" style="stroke:#181818;stroke-width:1;"/><polygon fill="#181818" points="111.43,46.16,118.0422,53.4593,116.0025,48.1829,121.2788,46.1433,111.43,46.16" style="stroke:#181818;stroke-width:1;"/><text fill="#000000" font-family="sans-serif" font-size="13" lengthAdjust="spacing" textLength="42.98" x="129.5" y="48.0669">Switch</text></g><!--SRC=[YzQALT2rK_1FI-C2OZ0pJy5A8RWyioGvWml8XaZ2XG00]--></g></svg>